<svg xmlns="http://www.w3.org/2000/svg" width="900" height="675" viewBox="0 0 900 675" fill="none">
  <rect width="900" height="675" fill="#EEF5F7"/>
  <rect x="78" y="92" width="744" height="491" rx="34" fill="#fff" stroke="#20202A" stroke-opacity=".12" stroke-width="2"/>
  <path d="M104 501C190 407 260 441 342 349C424 256 512 309 585 224C656 141 755 180 818 133V548H104V501Z" fill="#244E8F" fill-opacity=".35"/>
  <path d="M104 544C225 433 335 480 444 382C554 283 636 386 818 274V548H104V544Z" fill="#2D7C72" fill-opacity=".35"/>
  <circle cx="673" cy="180" r="62" fill="#D7A642"/>
  <path d="M158 162H342" stroke="#B83B32" stroke-opacity=".62" stroke-width="14" stroke-linecap="round"/>
  <path d="M158 208H281" stroke="#20202A" stroke-opacity=".22" stroke-width="14" stroke-linecap="round"/>
  <text x="84" y="636" fill="#20202A" fill-opacity=".6" font-family="Georgia, serif" font-size="42">Travel Lens Placeholder</text>
</svg>
